<?xml version="1.0" encoding="UTF-8"?>
<svg xmlns="http://www.w3.org/2000/svg" viewBox="0 0 770 770">
  <g id="logo_circle" data-name="logo circle"/>
  <g id="brao_brao_brao_brao" data-name="brao brao brao brao">
    <g id="brao">
      <g id="b">
        <line x1="76.99" y1="77.97" x2="76.99" y2="360.16" fill="none" stroke="#fff" stroke-linecap="round" stroke-linejoin="round" stroke-width="16"/>
        <path d="M76.99,204.95c55.01,0,67.6,155.21,0,155.21" fill="none" stroke="#fff" stroke-linecap="round" stroke-linejoin="round" stroke-width="16"/>
        <path d="M76.99,77.97c48.08,0,48.08,126.99,0,126.99" fill="none" stroke="#fff" stroke-linecap="round" stroke-linejoin="round" stroke-width="16"/>
      </g>
      <g id="r">
        <line x1="153.46" y1="77.97" x2="153.46" y2="360.16" fill="none" stroke="#fff" stroke-linecap="round" stroke-linejoin="round" stroke-width="16"/>
        <path d="M171.48,261.39c7.23,34.39,10.51,67.38,23.66,98.77" fill="none" stroke="#fff" stroke-linecap="round" stroke-linejoin="round" stroke-width="16"/>
        <path d="M153.46,275.5c48.08,0,48.08-197.54,0-197.54" fill="none" stroke="#fff" stroke-linecap="round" stroke-linejoin="round" stroke-width="16"/>
      </g>
      <g id="a">
        <polyline points="227.01 303.15 262.99 360.16 239.35 77.59 214.91 359.4" fill="none" stroke="#fff" stroke-linecap="round" stroke-linejoin="round" stroke-width="16"/>
      </g>
      <g id="apostrophe">
        <line x1="281.5" y1="61.98" x2="276.71" y2="94.42" fill="none" stroke="#fff" stroke-linecap="round" stroke-linejoin="round" stroke-width="16"/>
      </g>
      <g id="o">
        <path d="M325.83,360.16c24.04,0,24.04-86.07,24.04-141.1s-5.43-140.63-24-140.63-24.08,85.13-24.08,140.63,0,141.1,24.04,141.1" fill="none" stroke="#fff" stroke-linecap="round" stroke-linejoin="round" stroke-width="16"/>
      </g>
      <g id="b-2" data-name="b">
        <line x1="420.13" y1="77.97" x2="420.13" y2="360.16" fill="none" stroke="#fff" stroke-linecap="round" stroke-linejoin="round" stroke-width="16"/>
        <path d="M420.13,204.95c55.01,0,67.6,155.21,0,155.21" fill="none" stroke="#fff" stroke-linecap="round" stroke-linejoin="round" stroke-width="16"/>
        <path d="M420.13,77.97c48.08,0,48.08,126.99,0,126.99" fill="none" stroke="#fff" stroke-linecap="round" stroke-linejoin="round" stroke-width="16"/>
      </g>
      <g id="r-2" data-name="r">
        <line x1="496.6" y1="77.97" x2="496.6" y2="360.16" fill="none" stroke="#fff" stroke-linecap="round" stroke-linejoin="round" stroke-width="16"/>
        <path d="M514.63,261.39c7.23,34.39,10.51,67.38,23.66,98.77" fill="none" stroke="#fff" stroke-linecap="round" stroke-linejoin="round" stroke-width="16"/>
        <path d="M496.6,275.5c48.08,0,48.08-197.54,0-197.54" fill="none" stroke="#fff" stroke-linecap="round" stroke-linejoin="round" stroke-width="16"/>
      </g>
      <g id="a-2" data-name="a">
        <polyline points="570.15 303.15 606.13 360.16 582.49 77.59 558.05 359.4" fill="none" stroke="#fff" stroke-linecap="round" stroke-linejoin="round" stroke-width="16"/>
      </g>
      <g id="apostrophe-2" data-name="apostrophe">
        <line x1="624.64" y1="61.98" x2="619.85" y2="94.42" fill="none" stroke="#fff" stroke-linecap="round" stroke-linejoin="round" stroke-width="16"/>
      </g>
      <g id="o-2" data-name="o">
        <path d="M668.97,360.16c24.04,0,24.04-86.07,24.04-141.1s-5.43-140.63-24-140.63-24.08,85.13-24.08,140.63,0,141.1,24.04,141.1" fill="none" stroke="#fff" stroke-linecap="round" stroke-linejoin="round" stroke-width="16"/>
      </g>
      <g id="b-3" data-name="b">
        <line x1="76.99" y1="428.91" x2="76.99" y2="711.11" fill="none" stroke="#fff" stroke-linecap="round" stroke-linejoin="round" stroke-width="16"/>
        <path d="M76.99,555.9c55.01,0,67.6,155.21,0,155.21" fill="none" stroke="#fff" stroke-linecap="round" stroke-linejoin="round" stroke-width="16"/>
        <path d="M76.99,428.91c48.08,0,48.08,126.99,0,126.99" fill="none" stroke="#fff" stroke-linecap="round" stroke-linejoin="round" stroke-width="16"/>
      </g>
      <g id="r-3" data-name="r">
        <line x1="153.46" y1="428.91" x2="153.46" y2="711.11" fill="none" stroke="#fff" stroke-linecap="round" stroke-linejoin="round" stroke-width="16"/>
        <path d="M171.48,612.34c7.23,34.39,10.51,67.38,23.66,98.77" fill="none" stroke="#fff" stroke-linecap="round" stroke-linejoin="round" stroke-width="16"/>
        <path d="M153.46,626.45c48.08,0,48.08-197.54,0-197.54" fill="none" stroke="#fff" stroke-linecap="round" stroke-linejoin="round" stroke-width="16"/>
      </g>
      <g id="a-3" data-name="a">
        <polyline points="214.91 710.34 239.35 428.53 262.99 711.11" fill="none" stroke="#fff" stroke-linecap="round" stroke-linejoin="round" stroke-width="16"/>
        <line x1="227.01" y1="654.1" x2="251.05" y2="654.48" fill="none" stroke="#fff" stroke-linecap="round" stroke-linejoin="round" stroke-width="16"/>
      </g>
      <g id="apostrophe-3" data-name="apostrophe">
        <line x1="281.5" y1="409.02" x2="276.71" y2="441.46" fill="none" stroke="#fff" stroke-linecap="round" stroke-linejoin="round" stroke-width="16"/>
      </g>
      <g id="o-3" data-name="o">
        <path d="M325.83,711.11c24.04,0,24.04-86.07,24.04-141.1s-5.43-140.63-24-140.63-24.08,85.13-24.08,140.63,0,141.1,24.04,141.1" fill="none" stroke="#fff" stroke-linecap="round" stroke-linejoin="round" stroke-width="16"/>
      </g>
      <g id="b-4" data-name="b">
        <line x1="420.13" y1="428.91" x2="420.13" y2="711.11" fill="none" stroke="#fff" stroke-linecap="round" stroke-linejoin="round" stroke-width="16"/>
        <path d="M420.13,555.9c55.01,0,67.6,155.21,0,155.21" fill="none" stroke="#fff" stroke-linecap="round" stroke-linejoin="round" stroke-width="16"/>
        <path d="M420.13,428.91c48.08,0,48.08,126.99,0,126.99" fill="none" stroke="#fff" stroke-linecap="round" stroke-linejoin="round" stroke-width="16"/>
      </g>
      <g id="r-4" data-name="r">
        <line x1="496.6" y1="428.91" x2="496.6" y2="711.11" fill="none" stroke="#fff" stroke-linecap="round" stroke-linejoin="round" stroke-width="16"/>
        <path d="M514.63,612.34c7.23,34.39,10.51,67.38,23.66,98.77" fill="none" stroke="#fff" stroke-linecap="round" stroke-linejoin="round" stroke-width="16"/>
        <path d="M496.6,626.45c48.08,0,48.08-197.54,0-197.54" fill="none" stroke="#fff" stroke-linecap="round" stroke-linejoin="round" stroke-width="16"/>
      </g>
      <g id="a-4" data-name="a">
        <polyline points="570.15 654.1 606.13 711.11 582.49 428.53 558.05 710.34" fill="none" stroke="#fff" stroke-linecap="round" stroke-linejoin="round" stroke-width="16"/>
      </g>
      <g id="apostrophe-4" data-name="apostrophe">
        <line x1="624.64" y1="409.02" x2="619.85" y2="441.46" fill="none" stroke="#fff" stroke-linecap="round" stroke-linejoin="round" stroke-width="16"/>
      </g>
      <g id="o-4" data-name="o">
        <path d="M668.97,711.11c24.04,0,24.04-86.07,24.04-141.1s-5.43-140.63-24-140.63-24.08,85.13-24.08,140.63,0,141.1,24.04,141.1" fill="none" stroke="#fff" stroke-linecap="round" stroke-linejoin="round" stroke-width="16"/>
      </g>
    </g>
  </g>
  <g id="helemnejse_znzkvi_target" data-name="helemnejse znzkvi target"/>
  <g id="helmnejseznzkvi"/>
  <g id="dobili_ste_po_usima" data-name="dobili ste po usima"/>
  <g id="haj_skor" data-name="haj skor"/>
</svg>