<?xml version="1.0" encoding="UTF-8"?>
<svg xmlns="http://www.w3.org/2000/svg" viewBox="0 0 770 770">
  <g id="logo_circle" data-name="logo circle"/>
  <g id="brao_brao_brao_brao" data-name="brao brao brao brao"/>
  <g id="helemnejse_znzkvi_target" data-name="helemnejse znzkvi target"/>
  <g id="helmnejseznzkvi"/>
  <g id="dobili_ste_po_usima" data-name="dobili ste po usima">
    <g id="dobili">
      <g id="d">
        <line x1="69.59" y1="69.24" x2="69.59" y2="347.11" fill="none" stroke="#fff" stroke-linecap="round" stroke-linejoin="round" stroke-width="16"/>
        <path d="M69.59,69.24c49.65,0,101.14,277.88,0,277.88" fill="none" stroke="#fff" stroke-linecap="round" stroke-linejoin="round" stroke-width="16"/>
      </g>
      <g id="o">
        <path id="o-2" data-name="o" d="M183.91,69.55c31.26,0,31.26,84.33,31.26,139.01s-7.17,138.55-31.32,138.55-31.21-84.33-31.21-138.55,0-139.01,31.26-139.01" fill="none" stroke="#fff" stroke-linecap="round" stroke-linejoin="round" stroke-width="16"/>
      </g>
      <g id="b">
        <path d="M245.47,69.24c64.26,0,64.26,125.05,0,125.05" fill="none" stroke="#fff" stroke-linecap="round" stroke-linejoin="round" stroke-width="16"/>
        <line x1="245.47" y1="69.24" x2="245.47" y2="347.11" fill="none" stroke="#fff" stroke-linecap="round" stroke-linejoin="round" stroke-width="16"/>
        <path d="M245.47,194.28c73.53,0,90.36,152.83,0,152.83" fill="none" stroke="#fff" stroke-linecap="round" stroke-linejoin="round" stroke-width="16"/>
      </g>
      <g id="i">
        <line id="i-2" data-name="i" x1="338.54" y1="69.24" x2="338.54" y2="347.11" fill="none" stroke="#fff" stroke-linecap="round" stroke-linejoin="round" stroke-width="16"/>
      </g>
      <g id="l">
        <polyline id="l-2" data-name="l" points="375.75 69.24 375.75 347.11 419.17 347.11" fill="none" stroke="#fff" stroke-linecap="round" stroke-linejoin="round" stroke-width="16"/>
      </g>
      <g id="i-3" data-name="i">
        <line id="i-4" data-name="i" x1="453.71" y1="69.24" x2="453.71" y2="347.11" fill="none" stroke="#fff" stroke-linecap="round" stroke-linejoin="round" stroke-width="16"/>
      </g>
      <g id="s">
        <path id="s-2" data-name="s" d="M568.67,75.44c-33.7-33.75-48.12,51.66-17.71,117.48,30.41,65.83,24.33,189.64-21.65,143.59" fill="none" stroke="#fff" stroke-linecap="round" stroke-linejoin="round" stroke-width="16"/>
      </g>
      <g id="t">
        <line x1="612.33" y1="69.24" x2="612.33" y2="347.11" fill="none" stroke="#fff" stroke-linecap="round" stroke-linejoin="round" stroke-width="16"/>
        <line x1="586.68" y1="69.24" x2="637.99" y2="69.24" fill="none" stroke="#fff" stroke-linecap="round" stroke-linejoin="round" stroke-width="16"/>
      </g>
      <g id="e">
        <polyline points="700.41 69.24 663.34 69.24 663.34 347.11 700.41 347.11" fill="none" stroke="#fff" stroke-linecap="round" stroke-linejoin="round" stroke-width="16"/>
        <line x1="663.34" y1="208.18" x2="692.99" y2="208.18" fill="none" stroke="#fff" stroke-linecap="round" stroke-linejoin="round" stroke-width="16"/>
      </g>
      <g id="p">
        <line x1="69.59" y1="422.87" x2="69.59" y2="700.75" fill="none" stroke="#fff" stroke-linecap="round" stroke-linejoin="round" stroke-width="16"/>
        <path d="M69.59,422.87c76.79,0,76.79,218.36,0,218.36" fill="none" stroke="#fff" stroke-linecap="round" stroke-linejoin="round" stroke-width="16"/>
      </g>
      <g id="o-3" data-name="o">
        <path id="o-4" data-name="o" d="M185.46,422.87c33.63,0,33.63,84.34,33.63,139.03s-7.72,138.57-33.69,138.57-33.57-84.34-33.57-138.57,0-139.03,33.63-139.03" fill="none" stroke="#fff" stroke-linecap="round" stroke-linejoin="round" stroke-width="16"/>
      </g>
      <g id="u">
        <path id="u-2" data-name="u" d="M292.38,422.87c-5.45,165.18-8.45,277.88,22.66,277.88s28.47-66.08,22.46-277.88" fill="none" stroke="#fff" stroke-linecap="round" stroke-linejoin="round" stroke-width="16"/>
      </g>
      <g id="sh">
        <line x1="401.1" y1="396.36" x2="416.36" y2="387.46" fill="none" stroke="#fff" stroke-linecap="round" stroke-linejoin="round" stroke-width="16"/>
        <line x1="381.77" y1="387.46" x2="401.1" y2="396.36" fill="none" stroke="#fff" stroke-linecap="round" stroke-linejoin="round" stroke-width="16"/>
        <line x1="381.77" y1="387.46" x2="401.1" y2="396.36" fill="none" stroke="#fff" stroke-linecap="round" stroke-linejoin="round" stroke-width="16"/>
        <path d="M416.36,431.08c-36.52-33.75-52.15,51.66-19.19,117.48,32.95,65.83,26.36,189.64-23.46,143.59" fill="none" stroke="#fff" stroke-linecap="round" stroke-linejoin="round" stroke-width="16"/>
      </g>
      <g id="i-5" data-name="i">
        <line id="i-6" data-name="i" x1="459.12" y1="422.87" x2="459.12" y2="700.75" fill="none" stroke="#fff" stroke-linecap="round" stroke-linejoin="round" stroke-width="16"/>
      </g>
      <g id="m">
        <polyline points="506.19 700.75 512.67 422.71 512.67 422.71 548.63 700.75 588.63 422.71 592.32 699.92" fill="none" stroke="#fff" stroke-linecap="round" stroke-linejoin="round" stroke-width="16"/>
      </g>
      <g id="a">
        <polyline points="626.72 700.19 660.83 422.71 700.41 700.98" fill="none" stroke="#fff" stroke-linecap="round" stroke-linejoin="round" stroke-width="16"/>
        <line x1="633.62" y1="652.44" x2="692.08" y2="652.44" fill="none" stroke="#fff" stroke-linecap="round" stroke-linejoin="round" stroke-width="16"/>
      </g>
    </g>
  </g>
  <g id="haj_skor" data-name="haj skor"/>
</svg>