<svg xmlns="http://www.w3.org/2000/svg" viewBox="0 0 816.95 230.53">
  <g id="Layer_1" data-name="Layer 1">
    <g>
      <g>
        <line x1="719.78" y1="15.27" x2="719.78" y2="215.27" fill="none" stroke="#fff" stroke-linecap="round" stroke-linejoin="round" stroke-width="6"/>
        <path d="M753,145.27c13.33,24.37,19.38,47.75,43.65,70" fill="none" stroke="#fff" stroke-linecap="round" stroke-linejoin="round" stroke-width="6"/>
        <path d="M719.78,155.27c88.69,0,88.69-140,0-140" fill="none" stroke="#fff" stroke-linecap="round" stroke-linejoin="round" stroke-width="6"/>
      </g>
      <g>
        <line x1="719.78" y1="15.27" x2="719.78" y2="215.27" fill="none" stroke="#fff" stroke-linecap="round" stroke-linejoin="round" stroke-width="14"/>
        <path d="M753,145.27c13.33,24.37,19.38,47.75,43.65,70" fill="none" stroke="#fff" stroke-linecap="round" stroke-linejoin="round" stroke-width="14"/>
        <path d="M719.78,155.27c88.69,0,88.69-140,0-140" fill="none" stroke="#fff" stroke-linecap="round" stroke-linejoin="round" stroke-width="14"/>
      </g>
    </g>
    <g>
      <g>
        <polyline points="131.51 214.63 169.21 15.23 206.74 215.3" fill="none" stroke="#fff" stroke-linecap="round" stroke-linejoin="round" stroke-width="6"/>
        <line x1="150.33" y1="174.85" x2="187.95" y2="175.19" fill="none" stroke="#fff" stroke-linecap="round" stroke-linejoin="round" stroke-width="6"/>
      </g>
      <g>
        <polyline points="131.51 214.63 169.21 15.23 206.74 215.3" fill="none" stroke="#fff" stroke-linecap="round" stroke-linejoin="round" stroke-width="14"/>
        <line x1="150.33" y1="174.85" x2="187.95" y2="175.19" fill="none" stroke="#fff" stroke-linecap="round" stroke-linejoin="round" stroke-width="14"/>
      </g>
    </g>
    <path d="M642.44,215.27C680,215.27,680,154.17,680,115.1s-8.48-99.83-37.47-99.83S604.9,75.7,604.9,115.1s0,100.17,37.54,100.17" fill="none" stroke="#fff" stroke-linecap="round" stroke-linejoin="round" stroke-width="14"/>
    <g>
      <line x1="501.89" y1="15.27" x2="501.89" y2="215.27" fill="none" stroke="#fff" stroke-linecap="round" stroke-linejoin="round" stroke-width="16"/>
      <path d="M524,118c13.69,24.37,53.47,80.89,68.91,97.23" fill="none" stroke="#fff" stroke-linecap="round" stroke-linejoin="round" stroke-width="16"/>
      <path d="M501.89,155.27c38.33-59.85,62-120,68.41-140" fill="none" stroke="#fff" stroke-linecap="round" stroke-linejoin="round" stroke-width="16"/>
    </g>
    <g>
      <line x1="23" y1="15.27" x2="23" y2="215.27" fill="none" stroke="#fff" stroke-linecap="round" stroke-linejoin="round" stroke-width="16"/>
      <line x1="23" y1="115.27" x2="95.01" y2="115.27" fill="none" stroke="#fff" stroke-linecap="round" stroke-linejoin="round" stroke-width="16"/>
      <line x1="95.01" y1="15.27" x2="95.01" y2="215.27" fill="none" stroke="#fff" stroke-linecap="round" stroke-linejoin="round" stroke-width="16"/>
    </g>
    <path d="M232.57,155.27c0,30,13.82,60,34.53,60s34.53-35,34.53-80v-120H253.29" fill="none" stroke="#fff" stroke-linecap="round" stroke-linejoin="round" stroke-width="16"/>
    <path d="M462.06,20.74c-50.8-24.22-72.54,37.06-26.7,84.3s36.67,136.07-32.64,103" fill="none" stroke="#fff" stroke-linecap="round" stroke-linejoin="round" stroke-width="16"/>
  </g>
</svg>
