<svg xmlns="http://www.w3.org/2000/svg" viewBox="0 0 770 770">
  <g id="Layer_2" data-name="Layer 2">
    <g>
      <circle cx="385" cy="385" r="160" fill="#1e9600"/>
      <circle cx="385" cy="385" r="110" fill="#fff200"/>
      <circle cx="385" cy="385" r="60" fill="#ff0307"/>
    </g>
  </g>
  <g id="Layer_1" data-name="Layer 1">
    <g>
      <path d="M89.48,365.7l99.84,6.52" fill="none" stroke="#fff" stroke-linecap="round" stroke-linejoin="round" stroke-width="12"/>
      <path d="M139.4,369a280.53,280.53,0,0,1,6.31-47.2" fill="none" stroke="#fff" stroke-linecap="round" stroke-linejoin="round" stroke-width="12"/>
      <path d="M97.08,308.9l97.27,25.71" fill="none" stroke="#fff" stroke-linecap="round" stroke-linejoin="round" stroke-width="12"/>
      <path d="M341.88,91.81q7.28,49.53,14.56,99.05" fill="none" stroke="#fff" stroke-linecap="round" stroke-linejoin="round" stroke-width="12"/>
      <path d="M305.56,204.07,265,111.76" fill="none" stroke="#fff" stroke-linecap="round" stroke-linejoin="round" stroke-width="12"/>
      <path d="M265,111.76a295.31,295.31,0,0,1,51.64,35.88,275.52,275.52,0,0,1,25.21-55.83" fill="none" stroke="#fff" stroke-linecap="round" stroke-linejoin="round" stroke-width="12"/>
      <path d="M421.52,91q-6.16,49.67-12.34,99.32" fill="none" stroke="#fff" stroke-linecap="round" stroke-linejoin="round" stroke-width="12"/>
      <path d="M486.3,105q-17.1,47.29-34.22,94.6" fill="none" stroke="#fff" stroke-linecap="round" stroke-linejoin="round" stroke-width="12"/>
      <path d="M452.08,199.58c-2.51-36-12.67-72.82-30.6-108.26" fill="none" stroke="#fff" stroke-linecap="round" stroke-linejoin="round" stroke-width="12"/>
      <path d="M552.09,135.71a289,289,0,0,0-29-16l-46.67,89.62a190.06,190.06,0,0,1,19.17,10.57" fill="none" stroke="#fff" stroke-linecap="round" stroke-linejoin="round" stroke-width="12"/>
      <path d="M499.81,164.55q9.9,4.75,19.37,10.39" fill="none" stroke="#fff" stroke-linecap="round" stroke-linejoin="round" stroke-width="12"/>
      <path d="M680.52,365.7a337.11,337.11,0,0,0-7.6-56.8l-97.27,25.71a223.16,223.16,0,0,1,5,37.61" fill="none" stroke="#fff" stroke-linecap="round" stroke-linejoin="round" stroke-width="12"/>
      <path d="M624.29,321.76a278.09,278.09,0,0,1,5.87,40.13" fill="none" stroke="#fff" stroke-linecap="round" stroke-linejoin="round" stroke-width="12"/>
      <path d="M585.07,252.35c-24.7,4.24-30.58,26.69-24.72,38.74,6.08,11.85,27.6,21.14,45,2.11,17-20.35,4.71-39.85,14.89-56.44,7.18-12.53,23.07-6.68,29.56,6.42s2.25,30.61-11.9,29.09" fill="none" stroke="#fff" stroke-linecap="round" stroke-linejoin="round" stroke-width="12"/>
      <path d="M529.19,206.24c-9.37,12.08-12.48,28.62-4.1,36.71s27.1,3.14,45-11.21l47.06-39a265.35,265.35,0,0,0-29.45-30.46" fill="none" stroke="#fff" stroke-linecap="round" stroke-linejoin="round" stroke-width="12"/>
      <path d="M125.64,232.81a273.62,273.62,0,0,0-15.31,32.59l92.79,40.41a181,181,0,0,1,10.14-21.58" fill="none" stroke="#fff" stroke-linecap="round" stroke-linejoin="round" stroke-width="12"/>
      <path d="M148.57,198.09l79.87,63.15a175.89,175.89,0,0,1,21.33-22.82" fill="none" stroke="#fff" stroke-linecap="round" stroke-linejoin="round" stroke-width="12"/>
      <path d="M156.73,285.61a229.47,229.47,0,0,1,9.93-21.89" fill="none" stroke="#fff" stroke-linecap="round" stroke-linejoin="round" stroke-width="12"/>
      <path d="M235.06,125.73A285,285,0,0,0,206.86,143L267,224.77a187.9,187.9,0,0,1,18.68-11.45" fill="none" stroke="#fff" stroke-linecap="round" stroke-linejoin="round" stroke-width="12"/>
      <path d="M237,183.9q9-6.3,18.63-11.72" fill="none" stroke="#fff" stroke-linecap="round" stroke-linejoin="round" stroke-width="12"/>
    </g>
    <g>
      <g>
        <g>
          <path d="M431.59,571.72q12.15,48.66,24.29,97.33" fill="none" stroke="#fff" stroke-linecap="round" stroke-linejoin="round" stroke-width="12"/>
          <path d="M463.83,617c17.53,7.21,56.86,17.38,86.37,13.53" fill="none" stroke="#fff" stroke-linecap="round" stroke-linejoin="round" stroke-width="12"/>
          <path d="M448.59,639.85c30.68-38.2,31-74.67,30.5-85.2" fill="none" stroke="#fff" stroke-linecap="round" stroke-linejoin="round" stroke-width="12"/>
        </g>
        <g>
          <path d="M257.81,532.91,191.51,610" fill="none" stroke="#fff" stroke-linecap="round" stroke-linejoin="round" stroke-width="12"/>
          <path d="M309.81,563.09q-19.59,46.42-39.19,92.83" fill="none" stroke="#fff" stroke-linecap="round" stroke-linejoin="round" stroke-width="12"/>
          <path d="M257.81,532.91c-6.54,38.6-2.72,81.09,12.81,123" fill="none" stroke="#fff" stroke-linecap="round" stroke-linejoin="round" stroke-width="12"/>
          <path d="M257.81,532.91,191.51,610" fill="none" stroke="#fff" stroke-linecap="round" stroke-linejoin="round" stroke-width="12"/>
          <path d="M257.81,532.91c-6.54,38.6-2.72,81.09,12.81,123" fill="none" stroke="#fff" stroke-linecap="round" stroke-linejoin="round" stroke-width="12"/>
        </g>
        <g>
          <path d="M564.49,458.61,658.06,497" fill="none" stroke="#fff" stroke-linecap="round" stroke-linejoin="round" stroke-width="12"/>
          <path d="M564.49,458.61,658.06,497" fill="none" stroke="#fff" stroke-linecap="round" stroke-linejoin="round" stroke-width="12"/>
        </g>
        <g>
          <path d="M236.41,511.82a174.18,174.18,0,0,1-31.62-55.19" fill="none" stroke="#fff" stroke-linecap="round" stroke-linejoin="round" stroke-width="12"/>
          <path d="M159,577.93a264.86,264.86,0,0,1-48.09-84" fill="none" stroke="#fff" stroke-linecap="round" stroke-linejoin="round" stroke-width="12"/>
          <path d="M236.41,511.82c-39.07,6.45-82.8,2-125.55-17.85" fill="none" stroke="#fff" stroke-linecap="round" stroke-linejoin="round" stroke-width="12"/>
          <path d="M236.41,511.82a174.18,174.18,0,0,1-31.62-55.19" fill="none" stroke="#fff" stroke-linecap="round" stroke-linejoin="round" stroke-width="12"/>
          <path d="M236.41,511.82c-39.07,6.45-82.8,2-125.55-17.85" fill="none" stroke="#fff" stroke-linecap="round" stroke-linejoin="round" stroke-width="12"/>
        </g>
        <g>
          <path d="M400.26,576.3a214.58,214.58,0,0,1-59.89-4.15" fill="none" stroke="#fff" stroke-linecap="round" stroke-linejoin="round" stroke-width="12"/>
          <path d="M408.21,676a326.16,326.16,0,0,1-91.1-6.31" fill="none" stroke="#fff" stroke-linecap="round" stroke-linejoin="round" stroke-width="12"/>
          <path d="M400.26,576.3c-17.35,34.66-45.55,67.26-83.15,93.4" fill="none" stroke="#fff" stroke-linecap="round" stroke-linejoin="round" stroke-width="12"/>
          <path d="M400.26,576.3a214.58,214.58,0,0,1-59.89-4.15" fill="none" stroke="#fff" stroke-linecap="round" stroke-linejoin="round" stroke-width="12"/>
          <path d="M400.26,576.3c-17.35,34.66-45.55,67.26-83.15,93.4" fill="none" stroke="#fff" stroke-linecap="round" stroke-linejoin="round" stroke-width="12"/>
        </g>
        <g>
          <path d="M610,579.12A351.55,351.55,0,0,0,552.91,484" fill="none" stroke="#fff" stroke-linecap="round" stroke-linejoin="round" stroke-width="12"/>
          <path d="M501.18,541.32A288,288,0,0,0,610,579.12" fill="none" stroke="#fff" stroke-linecap="round" stroke-linejoin="round" stroke-width="12"/>
          <path d="M501.18,541.32A288,288,0,0,0,610,579.12" fill="none" stroke="#fff" stroke-linecap="round" stroke-linejoin="round" stroke-width="12"/>
        </g>
      </g>
      <path d="M376.86,574.84c-5.42-.2-10.84-.62-16.23-1.24" fill="none" stroke="#fff" stroke-linecap="round" stroke-linejoin="round" stroke-width="10"/>
    </g>
  </g>
</svg>
