<?xml version="1.0" encoding="UTF-8"?>
<svg xmlns="http://www.w3.org/2000/svg" viewBox="0 0 1200 931.47">
  <g id="logo_circle" data-name="logo circle"/>
  <g id="brao_brao_brao_brao" data-name="brao brao brao brao"/>
  <g id="helemnejse_znzkvi_target" data-name="helemnejse znzkvi target">
    <g id="helemnejseznzkvi">
      <g id="helemnejse">
        <g id="helem">
          <g id="h">
            <line x1="301.66" y1="253.86" x2="301.66" y2="353.86" fill="none" stroke="#fff" stroke-linecap="round" stroke-linejoin="round" stroke-width="12"/>
            <line x1="301.66" y1="303.86" x2="334.04" y2="303.86" fill="none" stroke="#fff" stroke-linecap="round" stroke-linejoin="round" stroke-width="12"/>
            <line x1="334.04" y1="253.86" x2="334.04" y2="353.86" fill="none" stroke="#fff" stroke-linecap="round" stroke-linejoin="round" stroke-width="12"/>
          </g>
          <g id="e">
            <polyline points="384.92 253.86 361.79 253.86 361.79 353.86 384.92 353.86" fill="none" stroke="#fff" stroke-linecap="round" stroke-linejoin="round" stroke-width="12"/>
            <line x1="361.79" y1="303.86" x2="380.3" y2="303.86" fill="none" stroke="#fff" stroke-linecap="round" stroke-linejoin="round" stroke-width="12"/>
          </g>
          <g id="l">
            <polyline points="412.67 253.86 412.67 353.86 445.05 353.86" fill="none" stroke="#fff" stroke-linecap="round" stroke-linejoin="round" stroke-width="12"/>
          </g>
          <g id="e-2" data-name="e">
            <polyline points="491.3 253.86 468.18 253.86 468.18 353.86 491.3 353.86" fill="none" stroke="#fff" stroke-linecap="round" stroke-linejoin="round" stroke-width="12"/>
            <line x1="468.18" y1="303.86" x2="486.68" y2="303.86" fill="none" stroke="#fff" stroke-linecap="round" stroke-linejoin="round" stroke-width="12"/>
          </g>
          <g id="m">
            <polyline points="514.43 353.86 514.43 253.86 542.18 353.86 569.94 253.86 569.94 353.86" fill="none" stroke="#fff" stroke-linecap="round" stroke-linejoin="round" stroke-width="12"/>
          </g>
        </g>
        <g id="nejse">
          <g id="n">
            <polyline points="625.44 353.86 625.44 253.86 625.44 254.17 671.69 353.86 671.69 353.86 671.69 253.86" fill="none" stroke="#fff" stroke-linecap="round" stroke-linejoin="round" stroke-width="12"/>
          </g>
          <g id="e-3" data-name="e">
            <polyline points="722.57 253.86 699.45 253.86 699.45 353.86 722.57 353.86" fill="none" stroke="#fff" stroke-linecap="round" stroke-linejoin="round" stroke-width="12"/>
            <line x1="699.45" y1="303.86" x2="717.95" y2="303.86" fill="none" stroke="#fff" stroke-linecap="round" stroke-linejoin="round" stroke-width="12"/>
          </g>
          <g id="j">
            <path d="M753.56,253.86h29.14v60c0,22.5-8.33,40-20.81,40s-20.81-15-20.81-30" fill="none" stroke="#fff" stroke-linecap="round" stroke-linejoin="round" stroke-width="12"/>
          </g>
          <g id="s">
            <path d="M836.58,276.36c4.63-12.5-4.63-22.5-13.88-22.5s-18.5,10-13.88,22.5c6.41,17.33,23.13,15,32.38,37.5s-4.63,40-18.5,40-27.75-17.5-18.5-40" fill="none" stroke="#fff" stroke-linecap="round" stroke-linejoin="round" stroke-width="12"/>
          </g>
          <g id="e-4" data-name="e">
            <polyline points="898.34 253.86 865.96 253.86 865.96 353.86 898.34 353.86" fill="none" stroke="#fff" stroke-linecap="round" stroke-linejoin="round" stroke-width="12"/>
            <line x1="865.96" y1="303.86" x2="893.71" y2="303.86" fill="none" stroke="#fff" stroke-linecap="round" stroke-linejoin="round" stroke-width="12"/>
          </g>
        </g>
      </g>
      <g id="znzkvi">
        <g id="z">
          <polyline points="301.66 401.63 361.68 401.63 301.66 706.14 361.68 706.14" fill="none" stroke="#fff" stroke-linecap="round" stroke-linejoin="round" stroke-width="16"/>
        </g>
        <g id="n-2" data-name="n">
          <polyline points="406.04 706.14 406.04 401.63 486.84 706.14 486.84 401.63" fill="none" stroke="#fff" stroke-linecap="round" stroke-linejoin="round" stroke-width="16"/>
        </g>
        <g id="z-2" data-name="z">
          <polyline points="534.04 401.63 594.05 401.63 534.04 706.14 594.05 706.14" fill="none" stroke="#fff" stroke-linecap="round" stroke-linejoin="round" stroke-width="16"/>
        </g>
        <g id="k">
          <line x1="647.62" y1="401.63" x2="647.62" y2="706.14" fill="none" stroke="#fff" stroke-linecap="round" stroke-linejoin="round" stroke-width="16"/>
          <path d="M647.62,614.79c38.33-91.12,62.03-182.76,68.41-213.16" fill="none" stroke="#fff" stroke-linecap="round" stroke-linejoin="round" stroke-width="16"/>
          <path d="M669.72,558.11c13.69,37.11,53.47,123.16,68.91,148.04" fill="none" stroke="#fff" stroke-linecap="round" stroke-linejoin="round" stroke-width="16"/>
        </g>
        <g id="v">
          <polyline points="767.7 401.63 810.21 706.14 843.78 401.63" fill="none" stroke="#fff" stroke-linecap="round" stroke-linejoin="round" stroke-width="16"/>
        </g>
        <g id="i">
          <line x1="898.34" y1="401.63" x2="898.34" y2="706.14" fill="none" stroke="#fff" stroke-linecap="round" stroke-linejoin="round" stroke-width="16"/>
        </g>
      </g>
    </g>
    <g id="target">
      <circle cx="600" cy="121.76" r="50" fill="none" stroke="#1e9600" stroke-miterlimit="10" stroke-width="100"/>
      <circle cx="600" cy="121.76" r="35" fill="none" stroke="#fff200" stroke-miterlimit="10" stroke-width="70"/>
      <circle cx="600" cy="121.76" r="20" fill="none" stroke="#ff0307" stroke-miterlimit="10" stroke-width="40"/>
    </g>
    <g id="number">
      <g>
        <path d="M256.76,838.09c0-1.46,0-2.93,0-4.39,.03-.22,.07-.44,.08-.66,.06-1.61,.1-3.23,.15-4.84,.12-3.49,.5-6.95,1.16-10.37,.82-4.28,2.09-8.42,4.24-12.25,1.52-2.7,3.3-5.19,5.71-7.18,4.45-3.69,9.67-5.8,15.18-7.26,4.02-1.07,8.12-1.75,12.27-2.05,2.49-.18,4.98-.36,7.47-.4,2.34-.04,4.69,.11,7.03,.17,4.2,.12,8.37,.56,12.49,1.37,4.67,.91,9.18,2.28,13.46,4.4,3.79,1.88,7.09,4.33,9.59,7.8,1.93,2.68,3.35,5.63,4.42,8.75,2.15,6.26,2.97,12.75,3.15,19.33,.16,6.06-.15,12.1-.87,18.13-.5,4.15-1.39,8.19-3.07,12.04-3.18,7.31-8.45,12.49-15.93,15.3-4.8,1.8-9.79,2.91-14.87,3.58-4.6,.6-9.21,.94-13.85,.87-2.36-.04-4.72-.21-7.08-.3-.24,0-.58,.09-.73,.26-2.15,2.45-4.28,4.92-6.42,7.39-.74,.85-1.47,1.7-2.22,2.54-.99,1.12-2.14,2.01-3.56,2.53h-1.24c-.06-.04-.11-.11-.17-.12-1.58-.29-2.36-1.39-2.7-2.82-.22-.9-.32-1.85-.34-2.78-.04-3.19-.02-6.38,0-9.57,0-.4-.1-.6-.51-.71-.72-.2-1.43-.44-2.13-.7-4.4-1.63-8.25-4.09-11.41-7.58-3.18-3.52-5.3-7.64-6.71-12.15-1.63-5.22-2.29-10.59-2.48-16.03-.03-.76-.09-1.53-.13-2.29Z" fill="#fff"/>
        <path d="M283.54,889.45c.25-.23,.39-.34,.51-.47,2.21-2.45,4.42-4.91,6.63-7.36,2.51-2.79,5.03-5.57,7.53-8.37,.29-.33,.6-.46,1.03-.43,.71,.06,1.42,.11,2.13,.12,3.64,.04,7.28,.08,10.91-.33,2.26-.26,4.54-.46,6.78-.88,2.88-.54,5.74-1.22,8.57-1.96,4.97-1.3,9.16-3.87,12.27-8.03,2.6-3.47,4.11-7.43,4.86-11.66,.43-2.44,.68-4.93,.91-7.4,.22-2.39,.38-4.79,.44-7.18,.11-4.09-.09-8.17-.65-12.23-.54-3.91-1.43-7.71-2.94-11.36-2.11-5.11-5.55-8.92-10.7-11.13-3.07-1.32-6.22-2.36-9.47-3.09-3.77-.84-7.6-1.31-11.45-1.52-1.91-.1-3.82-.14-5.74-.19-4.43-.11-8.84,.17-13.22,.84-3.92,.6-7.74,1.53-11.41,3.06-2.88,1.2-5.58,2.7-7.84,4.86-2.48,2.37-4.2,5.26-5.47,8.43-2.1,5.25-2.82,10.78-3.02,16.37-.13,3.64-.08,7.28-.02,10.92,.06,3.83,.59,7.61,1.59,11.32,1.05,3.89,2.7,7.5,5.29,10.63,3.16,3.82,7.23,6.24,11.93,7.67,.44,.13,.57,.32,.56,.77-.02,5.93-.01,11.87,0,17.8,0,.22,0,.43,0,.79Z" fill="#fff"/>
        <path d="M283.54,889.45c.25-.23,.39-.34,.51-.47,2.21-2.45,4.42-4.91,6.63-7.36,2.51-2.79,5.03-5.57,7.53-8.37,.29-.33,.6-.46,1.03-.43,.71,.06,1.42,.11,2.13,.12,3.64,.04,7.28,.08,10.91-.33,2.26-.26,4.54-.46,6.78-.88,2.88-.54,5.74-1.22,8.57-1.96,4.97-1.3,9.16-3.87,12.27-8.03,2.6-3.47,4.11-7.43,4.86-11.66,.43-2.44,.68-4.93,.91-7.4,.22-2.39,.38-4.79,.44-7.18,.11-4.09-.09-8.17-.65-12.23-.54-3.91-1.43-7.71-2.94-11.36-2.11-5.11-5.55-8.92-10.7-11.13-3.07-1.32-6.22-2.36-9.47-3.09-3.77-.84-7.6-1.31-11.45-1.52-1.91-.1-3.82-.14-5.74-.19-4.43-.11-8.84,.17-13.22,.84-3.92,.6-7.74,1.53-11.41,3.06-2.88,1.2-5.58,2.7-7.84,4.86-2.48,2.37-4.2,5.26-5.47,8.43-2.1,5.25-2.82,10.78-3.02,16.37-.13,3.64-.08,7.28-.02,10.92,.06,3.83,.59,7.61,1.59,11.32,1.05,3.89,2.7,7.5,5.29,10.63,3.16,3.82,7.23,6.24,11.93,7.67,.44,.13,.57,.32,.56,.77-.02,5.93-.01,11.87,0,17.8,0,.22,0,.43,0,.79Z" fill="#a248a2"/>
        <path d="M278.61,821.63c3.95,11.64,10.84,21.27,20.07,29.28,5.6,4.86,11.96,8.49,18.82,11.28,1.49,.61,2.95,.57,4.42-.05,1.9-.79,3.27-2.22,4.54-3.77,.99-1.2,1.94-2.44,2.43-3.95,.49-1.52,.28-2.94-.93-4.02-2.95-2.64-6.07-5.08-9.52-7.05-1.89-1.08-4.5-.89-5.85,1.13-.49,.73-1.08,1.39-1.62,2.09-.58,.75-1.35,1.23-2.28,1.09-1.04-.16-2.09-.43-3.05-.84-3.2-1.35-5.8-3.55-8.14-6.08-2.25-2.43-3.96-5.18-4.64-8.47-.31-1.48-.02-2.79,1.25-3.77,.74-.57,1.48-1.16,2.17-1.78,1.61-1.44,1.94-2.64,1.07-4.61-1.78-4.01-4.49-7.39-7.53-10.5-1.39-1.42-3.4-1.58-4.9-.54-1.61,1.12-3.19,2.31-4.68,3.59-1.24,1.06-2.17,2.39-2.28,4.18,.21,.92,.35,1.88,.65,2.77Zm48.31,6.11c-2.43-8.77-8.06-14.32-16.88-16.6-1.84-.47-3.72-.65-5.62-.64-.38,0-.63,.14-.64,.54-.01,.39,.23,.56,.61,.57,.35,.01,.71,.07,1.06,.07,1.77,.02,3.51,.27,5.2,.78,7.75,2.35,12.79,7.42,15.08,15.2,.73,2.49,1.01,5.06,1.03,7.65,0,.15-.05,.34,.03,.44,.14,.19,.38,.48,.54,.45,.2-.03,.47-.31,.5-.52,.08-.42,.02-.86,.02-1.14-.07-2.41-.33-4.64-.93-6.81Zm-5.12,4.42c-.1-.87-.15-1.76-.3-2.62-.97-5.25-3.79-9.09-8.68-11.33-1.98-.91-4.08-1.33-6.24-1.5-.43-.03-.71,.14-.72,.58-.02,.52,.4,.55,.78,.61,1,.15,2.01,.23,2.99,.47,4.76,1.14,8.11,3.95,9.96,8.5,.8,1.96,1.03,4.01,1.06,6.1,0,.4,.09,.77,.53,.78,.46,0,.61-.35,.58-.79-.01-.26,0-.53,0-.79h.05Zm-6.28-2.81c-.8-4.31-3.49-5.87-6.95-6.22-.42-.04-.87-.06-.96,.5-.07,.4,.3,.65,.9,.68,.33,.02,.67,.06,1,.12,2.31,.47,3.98,1.7,4.64,4.04,.23,.8,.31,1.65,.43,2.48,.06,.4,.2,.71,.64,.7,.43,0,.48-.35,.46-.69,0-.13,0-.26,0-.51-.04-.29-.07-.7-.15-1.1Z" fill="#fff"/>
      </g>
      <g>
        <path d="M429.89,836.6c0,30.74-9.34,37.37-22.38,37.37s-22.16-6.84-22.16-37.58,11.08-35.85,22.38-35.85,22.16,5.43,22.16,36.06Zm-28.13-.43c0,18.68,.54,25.2,5.87,25.2s5.76-6.41,5.76-24.98-.43-23.14-5.76-23.14c-4.89,0-5.87,5.11-5.87,22.92Z" fill="#fff"/>
        <path d="M464.76,818.78c-.33-2.82-.87-6.19-5.11-6.19-5.65,0-6.08,7.93-6.3,17.92,2.28-3.37,6.3-5.32,11.51-5.32,10.21,0,16.51,7.28,16.51,22.38,0,16.84-7.28,26.4-22.16,26.4-16.51,0-22.16-11.19-22.16-34.54,0-24.77,5.32-38.89,23.14-38.89,16.84,0,19.55,11.84,19.88,18.25h-15.32Zm.11,30.52c0-8.8-1.41-11.62-5.76-11.62-4.02,0-5.87,2.72-5.87,11.08,0,8.91,1.63,13.14,5.76,13.14s5.87-4.13,5.87-12.6Z" fill="#fff"/>
        <path d="M532.43,836.6c0,30.74-9.34,37.37-22.38,37.37s-22.16-6.84-22.16-37.58,11.08-35.85,22.38-35.85,22.16,5.43,22.16,36.06Zm-28.13-.43c0,18.68,.54,25.2,5.87,25.2s5.76-6.41,5.76-24.98-.43-23.14-5.76-23.14c-4.89,0-5.87,5.11-5.87,22.92Z" fill="#fff"/>
        <path d="M557.96,821.28c.22-9.23,4.02-20.75,20.96-20.75,13.69,0,20.2,7.06,20.2,18.58,0,9.02-4.02,13.25-8.8,14.99v.22c5.43,1.63,10.75,6.41,10.75,16.62,0,13.14-5,22.92-22.59,22.92-15.32,0-20.96-8.58-21.18-20.42h15.64c.22,4.89,1.3,8.47,5.76,8.47s5.65-3.37,5.65-10.21c0-7.93-1.74-10.75-9.45-10.75h-3.69v-12.17h3.48c6.19,0,8.26-1.41,8.26-8.58,0-5.11-.87-7.71-4.89-7.71s-4.78,4.13-5,8.8h-15.1Z" fill="#fff"/>
        <path d="M607.92,821.28c.22-9.23,4.02-20.75,20.96-20.75,13.69,0,20.2,7.06,20.2,18.58,0,9.02-4.02,13.25-8.8,14.99v.22c5.43,1.63,10.75,6.41,10.75,16.62,0,13.14-5,22.92-22.59,22.92-15.32,0-20.96-8.58-21.18-20.42h15.64c.22,4.89,1.3,8.47,5.76,8.47s5.65-3.37,5.65-10.21c0-7.93-1.74-10.75-9.45-10.75h-3.69v-12.17h3.48c6.19,0,8.26-1.41,8.26-8.58,0-5.11-.87-7.71-4.89-7.71s-4.78,4.13-5,8.8h-15.1Z" fill="#fff"/>
        <path d="M675.27,872.88v-.87c.11-13.69,4.89-21.51,15.86-33.89,7.71-8.69,9.23-10.86,9.23-17.92,0-4.24-.65-7.39-4.56-7.39-4.35,0-5.21,3.69-5.43,10.86h-15.21c0-11.62,4.35-23.14,21.29-23.14,14.99,0,20.53,8.58,20.53,20.53,0,8.69-2.17,13.25-11.19,22.92-5.87,6.41-9.99,11.3-11.41,15.42h24.33l-2.06,13.47h-41.39Z" fill="#fff"/>
        <path d="M768.04,836.6c0,30.74-9.34,37.37-22.38,37.37s-22.16-6.84-22.16-37.58,11.08-35.85,22.38-35.85,22.16,5.43,22.16,36.06Zm-28.13-.43c0,18.68,.54,25.2,5.87,25.2s5.76-6.41,5.76-24.98-.43-23.14-5.76-23.14c-4.89,0-5.87,5.11-5.87,22.92Z" fill="#fff"/>
        <path d="M809.85,856.15c.43,2.39,1.09,5.54,5.11,5.54,6.19,0,5.97-12.71,6.08-19.77-2.5,3.58-6.41,4.67-10.54,4.67-10.65,0-17.27-7.5-17.27-21.83s7.39-24.22,21.94-24.22c15.75,0,22.27,9.99,22.27,32.15,0,29.76-5.21,41.39-23.35,41.39s-19.77-13.9-19.99-17.92h15.75Zm-.22-32.7c0,7.5,1.85,10.65,5.87,10.65,3.8,0,5.54-2.72,5.54-9.78,0-7.6-.98-11.51-5.65-11.51-4.13,0-5.76,3.48-5.76,10.65Z" fill="#fff"/>
        <path d="M883.72,815.2h-21.29c-.33,3.48-.98,9.23-1.19,12.6,2.17-2.06,5.65-3.26,10.1-3.26,11.95,0,16.73,9.56,16.73,22.59,0,16.4-5.65,26.83-22.81,26.83-15.75,0-20.96-9.67-21.29-20.86h15.86c.22,5.11,1.41,8.69,5.54,8.69,5,0,5.97-4.34,5.97-12.71s-1.19-12.17-6.08-12.17c-3.58,0-4.89,2.61-5.76,6.52l-14.67-1.52c1.09-8.04,3.04-31.18,3.58-40.3h37.15l-1.85,13.58Z" fill="#fff"/>
        <path d="M939.66,836.6c0,30.74-9.34,37.37-22.38,37.37s-22.16-6.84-22.16-37.58,11.08-35.85,22.38-35.85,22.16,5.43,22.16,36.06Zm-28.13-.43c0,18.68,.54,25.2,5.87,25.2s5.76-6.41,5.76-24.98-.43-23.14-5.76-23.14c-4.89,0-5.87,5.11-5.87,22.92Z" fill="#fff"/>
      </g>
    </g>
  </g>
  <g id="helmnejseznzkvi"/>
  <g id="dobili_ste_po_usima" data-name="dobili ste po usima"/>
  <g id="haj_skor" data-name="haj skor"/>
</svg>