<svg xmlns="http://www.w3.org/2000/svg" viewBox="0 0 770 770">
  <g id="Layer_1" data-name="Layer 1">
    <g>
      <line x1="432.62" y1="406.59" x2="432.62" y2="711.11" fill="none" stroke="#fff" stroke-linecap="round" stroke-linejoin="round" stroke-width="16"/>
      <path d="M454.72,563.07c13.69,37.1,53.48,123.16,68.91,148" fill="none" stroke="#fff" stroke-linecap="round" stroke-linejoin="round" stroke-width="16"/>
      <path d="M432.62,619.75c38.32-91.12,62-182.76,68.41-213.16" fill="none" stroke="#fff" stroke-linecap="round" stroke-linejoin="round" stroke-width="16"/>
    </g>
    <g>
      <line x1="191.04" y1="406.59" x2="191.04" y2="711.11" fill="none" stroke="#fff" stroke-linecap="round" stroke-linejoin="round" stroke-width="16"/>
      <line x1="271.84" y1="406.59" x2="271.84" y2="711.11" fill="none" stroke="#fff" stroke-linecap="round" stroke-linejoin="round" stroke-width="16"/>
      <line x1="191.04" y1="406.59" x2="271.84" y2="711.11" fill="none" stroke="#fff" stroke-linecap="round" stroke-linejoin="round" stroke-width="16"/>
      <line x1="191.04" y1="406.59" x2="191.04" y2="711.11" fill="none" stroke="#fff" stroke-linecap="round" stroke-linejoin="round" stroke-width="16"/>
    </g>
    <line x1="683.34" y1="406.59" x2="683.34" y2="711.11" fill="none" stroke="#fff" stroke-linecap="round" stroke-linejoin="round" stroke-width="16"/>
    <g>
      <line x1="146.68" y1="406.59" x2="86.66" y2="406.59" fill="none" stroke="#fff" stroke-linecap="round" stroke-linejoin="round" stroke-width="16"/>
      <line x1="146.68" y1="711.11" x2="86.66" y2="711.11" fill="none" stroke="#fff" stroke-linecap="round" stroke-linejoin="round" stroke-width="16"/>
      <line x1="146.68" y1="406.59" x2="86.66" y2="711.11" fill="none" stroke="#fff" stroke-linecap="round" stroke-linejoin="round" stroke-width="16"/>
    </g>
    <g>
      <line x1="379.05" y1="406.59" x2="319.04" y2="406.59" fill="none" stroke="#fff" stroke-linecap="round" stroke-linejoin="round" stroke-width="16"/>
      <line x1="379.05" y1="711.11" x2="319.04" y2="711.11" fill="none" stroke="#fff" stroke-linecap="round" stroke-linejoin="round" stroke-width="16"/>
      <line x1="379.05" y1="406.59" x2="319.04" y2="711.11" fill="none" stroke="#fff" stroke-linecap="round" stroke-linejoin="round" stroke-width="16"/>
      <line x1="379.05" y1="406.59" x2="319.04" y2="711.11" fill="none" stroke="#fff" stroke-linecap="round" stroke-linejoin="round" stroke-width="16"/>
    </g>
    <g>
      <line x1="595.21" y1="711.11" x2="628.78" y2="406.59" fill="none" stroke="#fff" stroke-linecap="round" stroke-linejoin="round" stroke-width="16"/>
      <line x1="552.7" y1="406.59" x2="595.21" y2="711.11" fill="none" stroke="#fff" stroke-linecap="round" stroke-linejoin="round" stroke-width="16"/>
    </g>
    <g>
      <line x1="86.66" y1="54.45" x2="86.66" y2="175.23" fill="none" stroke="#fff" stroke-linecap="round" stroke-linejoin="round" stroke-width="16"/>
      <line x1="86.66" y1="114.84" x2="158.68" y2="114.84" fill="none" stroke="#fff" stroke-linecap="round" stroke-linejoin="round" stroke-width="16"/>
      <line x1="158.68" y1="54.45" x2="158.68" y2="175.23" fill="none" stroke="#fff" stroke-linecap="round" stroke-linejoin="round" stroke-width="16"/>
      <line x1="683.34" y1="54.45" x2="683.34" y2="175.23" fill="none" stroke="#fff" stroke-linecap="round" stroke-linejoin="round" stroke-width="16"/>
      <line x1="559.89" y1="175.23" x2="559.89" y2="54.45" fill="none" stroke="#fff" stroke-linecap="round" stroke-linejoin="round" stroke-width="16"/>
      <polyline points="559.89 54.45 621.61 175.23 683.34 54.45" fill="none" stroke="#fff" stroke-linecap="round" stroke-linejoin="round" stroke-width="16"/>
      <polyline points="283.76 54.45 220.4 54.45 220.4 175.23 283.76 175.23" fill="none" stroke="#fff" stroke-linecap="round" stroke-linejoin="round" stroke-width="16"/>
      <polyline points="342.07 54.45 342.07 175.23 404.48 175.23" fill="none" stroke="#fff" stroke-linecap="round" stroke-linejoin="round" stroke-width="16"/>
      <line x1="220.4" y1="114.84" x2="271.09" y2="114.84" fill="none" stroke="#fff" stroke-linecap="round" stroke-linejoin="round" stroke-width="16"/>
      <polyline points="508.45 54.45 457.01 54.45 457.01 175.23 508.45 175.23" fill="none" stroke="#fff" stroke-linecap="round" stroke-linejoin="round" stroke-width="16"/>
      <line x1="457.01" y1="114.84" x2="498.16" y2="114.84" fill="none" stroke="#fff" stroke-linecap="round" stroke-linejoin="round" stroke-width="16"/>
    </g>
    <g>
      <line x1="86.66" y1="229.27" x2="86.66" y2="350.06" fill="none" stroke="#fff" stroke-linecap="round" stroke-linejoin="round" stroke-width="16"/>
      <line x1="187.79" y1="229.27" x2="187.79" y2="350.06" fill="none" stroke="#fff" stroke-linecap="round" stroke-linejoin="round" stroke-width="16"/>
      <line x1="187.79" y1="350.06" x2="86.66" y2="229.65" fill="none" stroke="#fff" stroke-linecap="round" stroke-linejoin="round" stroke-width="16"/>
      <polyline points="316.2 229.27 245.64 229.27 245.64 350.06 316.2 350.06" fill="none" stroke="#fff" stroke-linecap="round" stroke-linejoin="round" stroke-width="16"/>
      <line x1="245.64" y1="289.67" x2="302.09" y2="289.67" fill="none" stroke="#fff" stroke-linecap="round" stroke-linejoin="round" stroke-width="16"/>
      <polyline points="683.34 229.27 612.54 229.27 612.54 350.06 683.34 350.06" fill="none" stroke="#fff" stroke-linecap="round" stroke-linejoin="round" stroke-width="16"/>
      <line x1="612.54" y1="289.67" x2="673.22" y2="289.67" fill="none" stroke="#fff" stroke-linecap="round" stroke-linejoin="round" stroke-width="16"/>
      <path d="M477.51,301.75c-20.23,27.17,10.11,48.31,40.45,48.31s60.68-21.14,40.45-48.31-56.76-24.36-70.79-45.3c-10.11-15.1,10.12-27.18,30.34-27.18s40.45,12.08,30.34,27.18" fill="none" stroke="#fff" stroke-linecap="round" stroke-linejoin="round" stroke-width="16"/>
      <path d="M361.45,313.83c0,18.11,13.81,36.23,34.53,36.23s34.53-21.14,34.53-48.31V229.27H382.17" fill="none" stroke="#fff" stroke-linecap="round" stroke-linejoin="round" stroke-width="16"/>
    </g>
  </g>
</svg>
